<?xml version="1.0" standalone="no"?>
<!DOCTYPE svg PUBLIC "-//W3C//DTD SVG 20010904//EN"
 "http://www.w3.org/TR/2001/REC-SVG-20010904/DTD/svg10.dtd">
<svg version="1.0" xmlns="http://www.w3.org/2000/svg"
 width="1422.000000pt" height="1206.000000pt" viewBox="0 0 1422.000000 1206.000000"
 preserveAspectRatio="xMidYMid meet">

<g transform="translate(0.000000,1206.000000) scale(0.100000,-0.100000)"
fill="#000000" stroke="none">
<path d="M4595 11676 l-650 -382 -3 -48 c-2 -33 0 -46 8 -41 17 11 120 23 114
13 -3 -4 3 -8 13 -8 36 0 132 -66 187 -130 66 -76 139 -214 156 -296 16 -74 9
-168 -15 -218 -12 -25 -36 -50 -67 -69 -26 -17 -48 -33 -48 -36 1 -6 163 -101
172 -101 3 0 8 27 11 60 12 109 34 133 224 243 110 63 122 68 170 65 28 -2 49
0 47 4 -3 4 24 -9 59 -30 121 -71 241 -234 281 -382 l15 -55 1 75 c1 41 5 101
9 133 l6 57 300 176 c165 97 454 266 643 376 188 110 342 203 342 207 0 3
-289 172 -642 375 -354 204 -652 375 -663 382 -18 11 -93 -31 -670 -370z m907
-183 l499 -288 -3 -35 c-3 -34 -7 -37 -253 -182 -137 -80 -253 -147 -257 -147
-4 -1 -8 13 -10 30 -3 34 48 3 -807 494 -105 61 -191 112 -191 115 0 6 502
299 514 300 5 0 234 -129 508 -287z"/>
<path d="M5000 11570 c0 -57 -2 -62 -30 -78 -17 -9 -53 -31 -80 -48 l-50 -30
317 -183 318 -183 50 26 c78 41 217 133 208 139 -135 79 -725 417 -729 417 -2
0 -4 -27 -4 -60z"/>
<path d="M3760 11012 c-53 -26 -75 -73 -74 -157 2 -237 234 -496 387 -431 141
58 94 342 -83 510 -45 42 -84 69 -116 80 -60 20 -71 20 -114 -2z"/>
<path d="M5895 10590 l-290 -169 -3 -349 -2 -350 147 -85 148 -86 35 21 c42
25 302 175 452 261 l108 62 0 345 0 346 -146 84 c-81 47 -150 86 -153 87 -3 1
-136 -74 -296 -167z"/>
<path d="M4604 10530 c-59 -24 -94 -112 -79 -205 24 -160 148 -339 268 -384
42 -16 119 -13 145 5 52 36 70 118 48 222 -45 218 -253 414 -382 362z"/>
<path d="M5252 10097 c-16 -43 -60 -83 -141 -128 -33 -18 -61 -36 -61 -40 0
-3 50 -34 110 -69 96 -55 108 -64 93 -75 -10 -6 -116 -65 -235 -130 l-218
-120 0 -437 c0 -241 -2 -438 -4 -438 -3 0 -215 122 -471 270 -257 149 -469
270 -471 270 -2 0 -4 -253 -4 -563 0 -530 1 -563 18 -573 17 -11 17 -20 -4
-210 -16 -147 -18 -202 -10 -210 18 -19 601 -354 615 -354 7 0 93 47 192 105
99 58 183 105 185 105 5 0 143 -78 153 -86 2 -2 -7 -96 -19 -209 -12 -113 -21
-207 -19 -209 2 -1 143 -83 312 -180 241 -140 312 -177 327 -170 10 5 142 81
293 169 l276 160 -6 60 -5 61 36 19 36 20 0 112 c0 62 -3 113 -7 113 -5 0 -21
-9 -38 -20 -54 -36 -56 -33 -53 112 l3 132 80 46 80 46 3 72 c2 58 0 72 -12
72 -8 0 -28 8 -45 17 -29 17 -31 17 -63 -1 -106 -62 -99 -52 -171 -227 l-67
-164 0 -117 c0 -65 -2 -118 -5 -118 -3 0 -57 30 -120 66 l-115 66 0 132 0 133
64 154 64 154 73 44 c40 25 67 47 61 49 -9 3 -12 66 -12 238 0 129 -3 234 -8
234 -4 0 -18 -7 -31 -16 -19 -14 -29 -15 -60 -4 -32 10 -41 9 -72 -9 l-34 -20
-53 30 -52 29 0 310 c0 171 -2 310 -5 310 -14 0 -77 -31 -91 -45 -9 -8 -22
-15 -30 -15 -8 0 -14 -4 -14 -10 0 -5 -11 -12 -25 -16 -14 -3 -25 -10 -25 -16
0 -5 -4 -7 -8 -4 -5 3 -21 -6 -37 -20 -15 -13 -33 -24 -40 -24 -7 0 -22 -9
-35 -20 -51 -44 -50 -51 -51 398 -1 229 -4 502 -8 606 -5 171 -7 186 -19 153z
m-683 -1403 c234 -136 438 -253 452 -261 44 -22 118 -110 149 -176 25 -52 30
-74 30 -141 0 -76 -1 -80 -33 -110 -19 -17 -68 -48 -109 -69 -68 -35 -79 -38
-112 -29 -20 6 -234 124 -477 264 -319 183 -454 266 -489 300 -67 66 -111 159
-118 246 -6 97 8 120 110 176 136 75 102 86 597 -200z m658 -361 c-1 -103 -2
-21 -2 182 0 204 1 288 2 188 2 -100 2 -266 0 -370z m-367 317 c0 -23 -13 -26
-29 -6 -9 11 -9 15 1 19 23 10 28 7 28 -13z m180 -55 c25 -13 30 -22 30 -51 0
-20 -3 -34 -7 -32 -61 29 -63 32 -63 65 0 38 1 38 40 18z m-1010 -272 c0 -37
-6 -40 -38 -17 -16 11 -22 25 -22 50 l0 35 30 -18 c24 -14 30 -24 30 -50z
m210 -120 c0 -37 0 -37 -35 -21 -20 9 -25 18 -25 49 l0 38 30 -17 c24 -13 30
-24 30 -49z m-104 -179 c-3 -8 -10 -14 -16 -14 -15 0 -13 127 3 133 8 3 13
-13 15 -51 2 -30 1 -61 -2 -68z m314 59 c0 -37 0 -37 -35 -21 -20 9 -25 18
-25 49 l0 38 30 -17 c24 -13 30 -24 30 -49z m200 -118 c0 -40 -2 -41 -35 -19
-19 12 -25 25 -25 50 l0 35 30 -16 c25 -13 30 -22 30 -50z m-104 -181 c-3 -8
-10 -14 -16 -14 -15 0 -13 113 3 129 10 10 13 1 15 -45 2 -31 1 -63 -2 -70z
m314 61 c0 -40 -2 -41 -35 -19 -19 12 -25 25 -25 50 l0 35 30 -16 c25 -13 30
-22 30 -50z m181 -72 c23 -14 29 -25 29 -50 0 -38 -2 -39 -41 -16 -23 14 -29
25 -29 50 0 38 2 39 41 16z m-71 -167 c0 -48 -12 -76 -32 -76 -13 0 -9 115 4
128 19 19 28 3 28 -52z"/>
<path d="M4244 8575 c-45 -68 52 -245 134 -245 36 0 49 10 62 44 29 77 -65
226 -143 226 -28 0 -40 -6 -53 -25z"/>
<path d="M4517 8432 c-41 -45 2 -180 71 -227 85 -58 140 -7 108 99 -33 108
-133 179 -179 128z"/>
<path d="M4776 8279 c-23 -34 -20 -88 10 -147 31 -62 79 -102 122 -102 83 0
81 125 -2 217 -52 55 -104 69 -130 32z"/>
<path d="M8248 9653 c-453 -264 -595 -350 -585 -359 6 -6 244 -144 528 -308
l516 -296 589 341 c324 188 594 347 601 353 9 8 -121 87 -509 311 -286 165
-526 301 -532 302 -6 2 -280 -153 -608 -344z m353 78 l22 -18 -59 -35 c-32
-19 -137 -78 -232 -132 -165 -95 -173 -98 -203 -86 -18 8 -27 16 -21 22 11 11
454 267 463 267 4 1 17 -7 30 -18z m153 -100 c-5 -5 -110 -66 -233 -136 -193
-110 -227 -127 -249 -119 -14 5 -27 14 -28 19 -2 6 101 69 228 142 230 131
231 132 261 117 16 -9 25 -19 21 -23z m115 -60 c19 -14 21 -20 10 -27 -8 -5
-113 -66 -234 -135 -220 -127 -220 -127 -248 -110 l-28 16 22 15 c30 20 443
258 449 259 3 0 16 -8 29 -18z m155 -101 c-5 -4 -109 -65 -232 -136 -197 -112
-226 -126 -249 -118 -15 5 -26 14 -26 19 0 6 103 69 229 142 226 130 228 131
257 116 16 -8 25 -18 21 -23z m136 -79 c0 -3 -80 -51 -177 -106 -97 -55 -202
-114 -233 -132 -56 -32 -56 -32 -84 -14 l-28 19 238 135 c228 131 238 135 260
120 13 -8 24 -18 24 -22z m134 -81 c-5 -5 -111 -68 -236 -140 -226 -130 -228
-130 -253 -114 -15 9 -22 21 -18 25 4 4 109 66 233 137 222 128 225 130 254
115 16 -8 24 -18 20 -23z m122 -64 c10 -8 17 -16 14 -19 -3 -2 -108 -63 -234
-135 -227 -130 -229 -131 -259 -116 -16 9 -26 18 -23 21 15 16 453 262 467
262 8 1 24 -5 35 -13z"/>
<path d="M3650 9861 c-13 -25 -13 -175 0 -223 12 -41 75 -104 116 -114 51 -13
59 2 62 128 2 105 1 117 -20 148 -47 70 -135 104 -158 61z"/>
<path d="M3926 9714 c-24 -23 -23 -206 2 -253 20 -40 75 -87 113 -96 48 -12
59 13 59 132 0 125 -18 170 -86 209 -48 28 -67 30 -88 8z"/>
<path d="M6530 9647 c-19 -12 -37 -24 -40 -28 -3 -3 -15 -9 -27 -13 -13 -4
-23 -12 -23 -17 0 -5 -6 -9 -13 -9 -8 0 -24 -9 -37 -20 -13 -11 -29 -20 -36
-20 -7 0 -19 -6 -26 -13 -7 -7 -28 -19 -45 -26 -18 -7 -33 -17 -33 -21 0 -4
-11 -11 -25 -14 -14 -4 -25 -11 -25 -16 0 -6 -7 -10 -15 -10 -8 0 -15 -4 -15
-10 0 -5 -3 -9 -7 -9 -18 3 -31 -2 -51 -21 -12 -12 -22 -18 -22 -15 0 4 -15
-4 -32 -17 -18 -13 -35 -23 -38 -24 -16 -2 -60 -29 -60 -36 0 -5 -4 -7 -8 -4
-5 3 -18 -3 -29 -14 -12 -10 -23 -16 -27 -13 -3 3 -8 -2 -12 -11 -3 -9 -12
-16 -20 -16 -15 0 -117 -60 -122 -72 -2 -4 -8 -8 -14 -8 -6 0 -26 -10 -45 -21
l-35 -22 50 -29 50 -28 261 150 c144 83 268 153 276 156 12 5 15 -3 15 -36 0
-34 -3 -41 -15 -36 -15 5 -475 -251 -474 -264 0 -3 15 -15 33 -26 l34 -21 103
59 c57 33 111 65 119 72 36 30 231 136 249 136 6 0 11 -32 13 -72 l3 -72 100
-58 c55 -32 103 -58 108 -58 10 0 9 657 -1 664 -4 2 -23 -5 -42 -17z"/>
<path d="M4192 9558 c-8 -8 -12 -48 -12 -115 0 -84 4 -111 20 -143 37 -73 135
-116 160 -71 17 32 12 195 -6 242 -29 71 -126 123 -162 87z"/>
<path d="M4462 9408 c-8 -8 -12 -50 -12 -122 0 -124 10 -153 72 -199 45 -34
70 -40 94 -23 17 13 19 27 19 123 0 125 -12 156 -77 203 -43 32 -76 38 -96 18z"/>
<path d="M5950 8913 l0 -48 157 -90 c86 -49 160 -92 165 -94 5 -1 8 19 6 45
l-3 48 -95 56 c-52 31 -125 73 -162 94 l-68 38 0 -49z"/>
<path d="M6453 8863 l-163 -95 0 -45 0 -45 68 39 c37 21 111 63 165 93 l97 55
0 48 c0 26 -1 47 -2 46 -2 0 -76 -43 -165 -96z"/>
<path d="M9496 8474 c-324 -189 -593 -347 -597 -351 -4 -4 37 -348 92 -763 54
-415 99 -759 99 -765 0 -6 -3 -5 -8 1 -8 13 -1832 1067 -1837 1062 -5 -6 205
-1382 212 -1388 5 -4 321 -188 704 -408 l696 -402 304 176 c167 97 340 198
385 224 l80 48 80 -47 c147 -87 179 -104 163 -87 -8 9 -63 45 -121 79 -57 34
-153 91 -211 125 l-107 64 0 89 0 88 148 -86 c147 -86 251 -143 263 -143 4 0
12 14 19 30 7 17 15 29 17 26 2 -2 -3 -18 -11 -35 -11 -20 -16 -57 -16 -117 0
-77 3 -89 25 -116 14 -16 25 -27 25 -23 0 4 14 -5 31 -19 17 -14 35 -26 41
-26 5 0 41 18 79 40 l69 41 0 69 c0 39 2 70 4 70 3 0 31 -15 62 -34 l57 -35
51 30 c28 17 61 35 73 41 13 6 46 58 82 128 l61 118 0 94 0 94 -42 34 c-83 68
-74 65 -115 40 -21 -12 -116 -67 -212 -122 l-174 -100 -36 20 c-20 11 -112 65
-206 119 l-170 99 -5 130 c-4 71 -4 273 0 448 l5 318 207 120 208 120 150 -87
c83 -48 153 -85 156 -83 2 3 -36 315 -86 694 -49 379 -90 692 -90 696 0 5 -3
8 -7 7 -5 -1 -273 -156 -597 -345z m-1839 -1277 c28 -16 60 -57 78 -101 46
-109 -29 -168 -114 -91 -37 33 -71 103 -71 145 0 49 57 75 107 47z m431 -252
c57 -48 88 -146 62 -196 -15 -27 -66 -25 -106 6 -58 44 -91 145 -64 196 16 28
71 25 108 -6z m4 -307 c543 -314 558 -324 558 -353 0 -19 -7 -35 -20 -43 -18
-11 -81 23 -585 314 -537 310 -565 328 -565 355 0 26 20 48 44 49 5 0 260
-145 568 -322z m2 -163 c552 -318 556 -320 556 -352 0 -22 -6 -36 -20 -43 -18
-10 -96 32 -583 313 -517 298 -562 327 -565 353 -4 29 21 57 45 52 7 -2 262
-147 567 -323z m412 223 c44 -39 64 -82 64 -141 0 -49 -13 -67 -49 -67 -50 1
-97 43 -126 114 -45 106 28 167 111 94z m-420 -381 c545 -314 559 -323 562
-355 3 -25 -1 -34 -20 -42 -20 -10 -87 26 -583 312 -514 297 -560 326 -563
352 -3 25 18 55 39 56 4 0 258 -145 565 -323z m-450 91 c65 -57 92 -148 58
-196 -24 -35 -60 -28 -109 21 -110 110 -62 274 51 175z m234 -134 c83 -70 97
-214 20 -214 -59 0 -130 92 -130 169 0 71 52 93 110 45z m2470 -103 l0 -89
-53 -27 -53 -28 -73 42 c-40 24 -79 40 -87 37 -31 -12 -11 4 44 34 31 18 68
39 82 48 22 13 23 12 7 -1 -17 -14 -13 -17 47 -51 35 -20 67 -36 71 -36 4 0 5
36 3 80 -2 44 0 80 5 80 4 0 7 -40 7 -89z m-50 64 c0 -2 -10 -9 -22 -15 -22
-11 -22 -10 -4 4 21 17 26 19 26 11z m-2186 -96 c55 -43 88 -155 57 -193 -34
-41 -115 4 -147 81 -17 40 -18 105 -2 121 19 19 62 14 92 -9z m1923 -106 c-3
-10 -5 -2 -5 17 0 19 2 27 5 18 2 -10 2 -26 0 -35z m56 -47 l37 -23 -40 -27
c-50 -33 -60 -33 -60 2 0 34 10 72 19 72 3 0 23 -11 44 -24z"/>
<path d="M7415 8443 c-27 -115 -49 -216 -49 -226 -1 -14 121 -88 489 -301 270
-156 491 -283 493 -281 7 7 -99 561 -110 570 -16 14 -762 445 -771 445 -2 0
-25 -93 -52 -207z"/>
<path d="M575 8223 c6 -6 197 -117 425 -248 228 -131 423 -244 433 -251 22
-14 28 -10 -526 -324 -197 -112 -355 -206 -350 -211 9 -9 152 -92 716 -416
l408 -234 97 55 c53 30 262 149 465 264 202 116 365 207 363 203 -3 -4 247
-152 555 -330 406 -235 566 -322 581 -318 33 9 9 -8 -67 -48 -144 -76 -204
-110 -473 -264 -318 -182 -372 -214 -372 -221 0 -4 629 -371 648 -377 4 -2 7
84 8 190 1 165 4 203 23 272 43 157 115 278 214 356 29 23 51 46 49 51 -1 5 2
7 7 4 10 -6 121 44 121 54 -1 9 -1184 685 -1197 684 -7 -1 -11 1 -9 5 5 7
-1105 651 -1122 651 -6 0 -12 4 -14 8 -1 4 -50 35 -108 69 -58 33 -220 127
-360 209 l-255 149 -105 6 c-58 4 -118 10 -135 14 -20 5 -27 4 -20 -2z m955
-468 c0 -2 -10 -9 -22 -15 -22 -11 -22 -10 -4 4 21 17 26 19 26 11z m1150
-650 c0 -2 -10 -9 -22 -15 -22 -11 -22 -10 -4 4 21 17 26 19 26 11z m1130
-660 c0 -2 -10 -9 -22 -15 -22 -11 -22 -10 -4 4 21 17 26 19 26 11z"/>
<path d="M6663 8118 c-29 -17 -33 -25 -33 -63 0 -42 -3 -46 -44 -70 -37 -21
-49 -24 -65 -15 -17 9 -21 21 -21 68 0 82 -6 87 -68 51 l-52 -29 0 -95 c0 -84
-2 -96 -20 -107 -18 -12 -20 -24 -20 -116 0 -58 4 -102 9 -100 5 2 41 21 80
43 63 36 71 43 71 71 0 17 8 38 18 46 19 17 125 78 135 78 4 0 7 -60 7 -132
l0 -133 -50 -28 -50 -28 0 -115 0 -115 58 33 c96 54 96 55 166 224 l66 162 0
115 0 115 -66 81 c-36 45 -71 81 -78 80 -6 0 -26 -10 -43 -21z"/>
<path d="M11710 7599 c-360 -209 -656 -383 -657 -387 -1 -4 297 -181 664 -393
l665 -386 -1 -814 c-1 -447 -4 -815 -6 -817 -1 -2 -104 55 -226 126 -123 72
-422 245 -664 385 l-440 254 -3 -507 -2 -507 -170 -98 -170 -97 837 -484 c461
-266 840 -489 841 -494 2 -6 -33 -85 -77 -176 l-81 -167 0 -151 c0 -108 4
-156 13 -165 6 -8 -6 -2 -28 12 -22 14 -393 226 -825 472 -432 246 -788 449
-792 452 -25 14 0 -10 55 -53 63 -51 1703 -992 1690 -971 -3 7 5 1 19 -11 15
-13 33 -22 41 -20 8 1 276 154 595 338 569 328 579 335 565 356 -13 21 -12 24
21 49 34 26 49 65 25 65 -6 0 -36 -14 -65 -31 -30 -17 -54 -28 -54 -24 0 3 7
19 15 35 15 29 11 37 -11 22 -6 -4 -20 -25 -32 -47 -30 -60 -101 -115 -148
-115 -19 0 -84 65 -84 85 0 7 -11 33 -25 56 -14 24 -34 72 -45 107 -17 56 -18
67 -6 95 14 33 109 96 120 79 3 -5 40 -12 81 -16 66 -6 149 -26 208 -51 12 -5
17 -2 17 11 1 14 49 46 177 119 180 102 222 129 213 138 -3 3 -89 -44 -192
-104 -104 -60 -192 -109 -197 -109 -4 0 -11 19 -15 43 -21 132 -155 455 -265
635 -36 60 -143 204 -205 276 -51 60 -66 89 -39 79 12 -5 12 -7 1 -14 -7 -5
-8 -9 -2 -9 19 0 24 13 11 28 -8 10 -8 13 -1 9 7 -4 14 0 18 8 3 8 12 12 21 9
8 -3 12 -11 9 -16 -4 -6 3 -5 15 2 18 9 20 14 10 26 -7 8 -8 14 -3 13 20 -4
35 2 29 11 -3 6 1 7 10 4 14 -6 14 -8 -2 -21 -14 -10 -10 -10 15 2 32 15 45
29 18 19 -8 -3 -17 0 -22 7 -4 8 -3 10 4 5 7 -4 12 -3 12 1 0 5 9 9 20 10 12
1 18 -3 14 -9 -4 -6 2 -5 15 2 19 10 20 14 9 28 -7 9 -8 13 -2 9 7 -4 14 0 18
8 3 9 12 12 22 8 12 -4 15 -3 10 5 -5 8 -2 10 10 5 15 -5 15 -7 0 -15 -9 -5
-20 -7 -24 -4 -5 3 -9 -1 -9 -9 0 -12 5 -11 29 1 22 11 27 19 19 28 -7 9 -5
12 10 13 11 1 17 -3 13 -9 -4 -6 2 -5 15 2 19 10 20 14 9 28 -10 12 -10 14 0
8 6 -4 12 -3 12 1 0 5 9 9 20 10 11 1 18 -3 14 -8 -3 -5 0 -8 8 -7 7 2 12 -3
10 -10 -1 -8 2 -10 8 -7 8 5 7 13 -3 28 -65 98 -196 78 -322 -49 -107 -108
-170 -258 -163 -390 4 -80 20 -113 75 -149 27 -18 59 -72 49 -83 -16 -15 -292
126 -354 182 -86 76 -90 247 -10 422 14 31 21 64 20 89 -3 35 0 42 28 57 16 9
30 12 30 7 0 -6 28 18 62 53 35 34 62 66 61 70 -2 4 5 4 14 1 11 -4 14 -3 9 6
-4 6 -4 10 1 9 16 -4 53 14 48 23 -3 5 2 6 11 2 10 -4 15 -2 11 4 -3 5 2 9 11
9 77 0 112 5 112 17 0 6 14 20 31 30 l31 17 -4 -38 -3 -39 110 -64 c60 -34
125 -74 143 -88 42 -31 69 -83 78 -149 5 -40 17 -65 52 -109 103 -132 250
-389 238 -419 -3 -7 -1 -13 5 -11 12 2 89 -183 121 -291 20 -70 22 -72 53 -72
44 0 97 -38 107 -76 5 -19 3 -50 -7 -85 -13 -50 -12 -55 5 -73 11 -11 21 -18
24 -15 2 2 27 50 55 106 l51 103 0 154 0 153 -87 75 c-58 48 -146 107 -255
169 l-167 94 -2 405 c-1 223 -5 823 -8 1333 l-6 929 -655 384 c-360 211 -659
384 -665 383 -5 0 -305 -171 -665 -380z m838 189 c97 -55 183 -106 189 -112
16 -15 -359 -232 -379 -220 -11 6 -11 5 0 -8 9 -12 12 -65 10 -216 l-3 -201
-187 107 -187 107 -1 98 c0 53 -2 97 -6 97 -3 0 -122 -67 -265 -150 -143 -82
-264 -150 -269 -150 -16 0 -120 65 -117 73 1 5 149 92 327 195 l325 187 5 39
5 40 185 108 c102 59 186 108 188 108 2 0 83 -46 180 -102z m-1346 -2384 c-5
-38 -6 -38 -36 -19 -20 13 -26 26 -26 52 l0 35 33 -19 c26 -16 31 -24 29 -49z
m2366 -36 c-32 -25 -38 -23 -38 15 0 25 7 36 28 49 l27 17 3 -31 c3 -24 -2
-36 -20 -50z m-2187 -35 c23 -14 29 -24 29 -51 0 -19 -3 -32 -7 -30 -62 30
-63 31 -61 65 2 38 1 38 39 16z m2009 -36 c0 -26 -6 -36 -30 -50 l-30 -18 0
34 c0 25 7 39 23 50 32 23 37 21 37 -16z m-2079 -65 c57 -38 109 -129 109
-191 0 -40 -41 -86 -96 -107 -43 -16 -46 -16 -80 2 -38 20 -82 71 -102 117
-16 38 -15 118 3 141 40 53 118 71 166 38z m274 -18 c19 -12 25 -25 25 -51 l0
-34 -30 18 c-24 14 -30 24 -30 50 0 38 2 39 35 17z m225 -161 c0 -37 -6 -40
-38 -17 -16 11 -22 25 -22 50 l0 35 30 -18 c24 -14 30 -24 30 -50z m175 -69
c19 -12 25 -25 25 -50 l0 -35 -30 16 c-25 13 -30 22 -30 50 0 40 2 41 35 19z
m-335 -54 c13 -24 33 -25 71 -3 27 16 30 16 56 -3 14 -11 27 -30 28 -42 2 -30
82 -111 103 -106 11 3 25 -8 40 -32 21 -32 22 -38 9 -52 -13 -15 -13 -23 0
-65 7 -26 23 -53 33 -60 14 -8 20 -23 20 -48 0 -32 -5 -40 -36 -58 -36 -21
-38 -28 -20 -72 6 -13 -11 -27 -75 -64 l-82 -47 -22 28 -22 28 -35 -21 c-35
-21 -36 -21 -67 -2 -18 11 -31 27 -31 39 0 30 -79 112 -101 105 -24 -8 -69 73
-48 86 19 11 -5 99 -31 118 -15 10 -20 25 -20 56 0 38 3 44 35 61 28 15 35 23
30 39 -13 41 -8 47 60 90 80 50 90 53 105 25z m560 -107 c0 -37 0 -37 -35 -21
-20 9 -25 18 -25 49 l0 38 30 -17 c24 -13 30 -24 30 -49z m1155 39 c-3 -3 -11
0 -18 7 -9 10 -8 11 6 5 10 -3 15 -9 12 -12z m-775 -27 c0 -28 -5 -37 -30 -50
l-30 -16 0 35 c0 28 6 38 28 50 15 8 28 15 30 16 1 0 2 -16 2 -35z m-1292 -29
c59 -31 122 -130 122 -193 0 -55 -73 -123 -132 -123 -35 0 -87 38 -123 89 -26
37 -30 51 -30 109 l0 66 43 33 c47 36 78 41 120 19z m1947 -14 c-3 -3 -11 0
-18 7 -9 10 -8 11 6 5 10 -3 15 -9 12 -12z m-1055 -67 c55 -28 110 -125 110
-192 0 -71 -109 -140 -171 -107 -67 34 -119 119 -118 194 0 25 6 54 14 64 39
52 110 69 165 41z m935 -3 c-3 -3 -11 0 -18 7 -9 10 -8 11 6 5 10 -3 15 -9 12
-12z m-1946 -281 c22 -16 27 -26 23 -50 l-4 -31 -29 17 c-23 14 -29 25 -29 50
0 38 3 39 39 14z m573 -443 l627 -363 1 -67 0 -66 -670 386 -669 387 -1 68 0
68 43 -25 c23 -14 324 -189 669 -388z m-364 324 c18 -14 23 -26 20 -50 l-3
-32 -32 20 c-26 15 -33 27 -33 50 0 34 14 38 48 12z m803 -30 c87 -57 136
-194 90 -249 -26 -31 -82 -63 -110 -63 -56 0 -143 91 -157 165 -12 66 -2 97
44 132 50 38 93 43 133 15z m-581 -129 c0 -37 0 -37 -35 -21 -20 9 -25 18 -25
49 l0 38 30 -17 c24 -13 30 -24 30 -49z m2436 -45 c68 -54 73 -80 7 -41 -112
64 -107 60 -86 72 10 6 19 11 21 11 2 0 28 -19 58 -42z m-2236 -74 l0 -35 -30
16 c-25 13 -30 22 -30 51 l0 35 30 -16 c25 -13 30 -22 30 -51z m1180 13 c0
-26 -6 -36 -25 -45 -35 -16 -35 -16 -35 21 0 25 6 37 23 45 34 16 37 15 37
-21z m168 -46 c8 -23 12 -44 10 -46 -2 -3 -164 -97 -359 -211 -195 -113 -369
-215 -387 -226 l-33 -20 3 63 3 63 365 213 c201 117 369 211 374 210 6 -2 16
-22 24 -46z m-1173 -33 c20 -9 25 -18 25 -49 l0 -38 -30 17 c-24 13 -30 24
-30 50 0 36 0 36 35 20z m805 -33 c0 -28 -5 -37 -30 -50 l-30 -16 0 35 c0 28
6 38 28 50 15 8 28 15 30 16 1 0 2 -16 2 -35z m-580 -131 l0 -35 -30 16 c-25
13 -30 22 -30 51 l0 35 30 -16 c25 -13 30 -22 30 -51z m380 14 c0 -26 -6 -37
-30 -50 l-30 -17 0 34 c0 24 7 39 22 49 32 23 38 20 38 -16z m447 -268 c-26
-53 -33 -78 -35 -146 -5 -113 10 -142 99 -195 38 -22 69 -42 69 -44 0 -5 -122
-77 -232 -139 l-68 -37 25 53 c45 99 50 214 11 272 -9 14 -50 46 -92 70 l-75
44 93 54 c194 114 233 136 235 134 1 -1 -13 -30 -30 -66z m-592 -323 c-56
-100 -68 -235 -26 -304 10 -16 48 -47 85 -68 36 -22 63 -42 58 -46 -4 -3 -30
-19 -58 -34 l-51 -28 -57 44 -56 44 0 108 0 107 55 110 c30 61 59 110 64 110
5 0 -1 -19 -14 -43z m380 -8 c44 -26 55 -46 55 -101 0 -116 -128 -251 -204
-216 -89 40 -88 207 1 289 59 55 92 61 148 28z m-534 -556 c13 -16 12 -17 -3
-4 -10 7 -18 15 -18 17 0 8 8 3 21 -13z"/>
<path d="M11566 4699 c-52 -75 42 -249 135 -249 80 0 76 127 -5 217 -52 55
-104 69 -130 32z"/>
<path d="M11239 6930 c-24 -16 -48 -30 -52 -30 -19 0 -76 -54 -91 -85 -19 -39
-20 -130 -3 -200 40 -159 203 -327 321 -329 32 -1 57 9 117 46 102 64 117 83
130 155 22 125 -30 270 -136 379 -96 98 -201 122 -286 64z m115 -220 c93 -86
113 -216 45 -286 -44 -45 -68 -50 -117 -25 -38 19 -112 94 -112 114 0 4 26 -6
58 -24 31 -18 69 -40 83 -48 22 -12 32 -13 53 -3 23 10 26 17 26 62 0 54 -1
55 -31 40 -21 -12 -32 -7 -166 72 l-85 50 38 32 c56 47 75 55 122 56 36 0 49
-6 86 -40z"/>
<path d="M11935 6554 c-66 -33 -151 -101 -167 -134 -70 -138 65 -426 236 -506
70 -33 109 -31 169 8 28 18 64 39 81 47 98 50 111 216 28 381 -34 68 -132 169
-193 198 -53 26 -111 28 -154 6z m77 -228 c66 -50 109 -164 88 -236 -13 -44
-67 -100 -98 -100 -42 0 -93 32 -133 83 -22 27 -38 52 -35 54 2 3 41 -17 86
-43 70 -40 86 -46 109 -38 23 8 26 15 29 62 3 57 4 57 -31 41 -21 -10 -36 -4
-118 43 -52 30 -104 61 -116 68 l-22 14 27 18 c15 10 43 29 62 43 45 32 103
29 152 -9z"/>
<path d="M11297 6127 l-67 -40 2 -269 3 -270 398 -229 397 -230 70 38 70 38 0
270 0 270 -372 215 c-205 118 -386 222 -403 231 -30 16 -31 16 -98 -24z m351
-283 l202 -117 0 -78 0 -78 -46 -27 c-38 -22 -49 -25 -70 -16 -22 11 -24 9
-24 -12 0 -18 -11 -31 -44 -49 l-45 -25 -70 41 -71 41 0 76 0 76 -65 38 -65
38 0 81 0 82 38 22 c20 12 42 22 48 23 6 0 101 -52 212 -116z"/>
<path d="M4381 5764 c-30 -21 -51 -71 -44 -106 4 -23 -4 -36 -60 -88 -42 -39
-77 -84 -98 -124 -32 -61 -36 -65 -76 -71 -54 -8 -119 -56 -156 -116 -56 -91
-44 -212 28 -296 l33 -39 -46 -35 c-52 -39 -92 -92 -92 -123 0 -36 45 -90 96
-116 43 -22 62 -25 149 -25 88 0 104 -3 129 -22 38 -30 130 -64 193 -70 47 -5
56 -10 92 -53 54 -64 127 -100 203 -100 50 0 63 4 85 26 24 24 25 30 20 97 -4
40 -9 84 -13 100 -6 25 -4 27 27 27 19 0 57 11 85 24 140 65 182 266 80 387
-22 26 -23 33 -14 66 14 51 14 188 0 238 -10 35 -10 42 7 55 47 38 54 103 15
149 -21 26 -33 31 -68 31 -23 0 -47 -5 -53 -11 -9 -9 -23 -2 -55 24 -71 58
-151 90 -240 95 -74 4 -77 6 -89 34 -21 52 -92 74 -138 42z m81 -51 c26 -23
23 -28 -23 -42 -53 -16 -69 -3 -45 33 19 30 42 33 68 9z m176 -83 c123 -23
221 -99 279 -218 37 -73 38 -79 38 -183 0 -59 -3 -110 -6 -113 -3 -3 -37 15
-76 41 l-71 46 14 33 c8 18 14 56 14 84 0 58 -24 90 -66 90 -33 0 -90 -57 -99
-100 -7 -34 -18 -36 -69 -15 -40 17 -41 21 -25 74 15 49 -3 118 -34 132 -47
21 -119 -39 -133 -110 -7 -32 -9 -33 -43 -27 -20 3 -62 8 -93 12 -32 4 -58 9
-58 11 0 2 9 21 20 43 46 90 167 179 270 199 62 12 80 12 138 1z m350 -112
c16 -16 15 -53 -2 -67 -12 -10 -19 -5 -39 26 -14 21 -23 41 -20 46 7 11 48 8
61 -5z m-446 -65 c11 -10 18 -30 18 -51 l0 -34 -18 22 c-14 17 -24 21 -41 15
-20 -6 -22 -12 -18 -40 5 -33 5 -33 -26 -24 -17 5 -35 13 -40 18 -11 11 18 82
40 99 23 17 63 15 85 -5z m251 -90 c25 -29 30 -67 13 -107 -16 -39 -28 -43
-65 -22 -24 13 -24 14 -4 20 27 9 36 32 23 57 -13 23 -33 24 -54 3 -19 -18
-19 -20 -5 -45 10 -19 9 -19 -10 -9 -20 10 -20 12 -6 48 17 42 49 72 75 72 9
0 24 -8 33 -17z m-249 -28 c-7 -16 -24 -21 -24 -6 0 8 7 13 27 20 1 1 0 -6 -3
-14z m-186 -34 c267 -52 533 -187 616 -313 50 -76 55 -124 22 -193 -38 -76
-94 -109 -185 -109 -79 0 -167 22 -152 37 18 18 12 29 -11 21 -44 -13 -78 -5
-170 42 -82 42 -107 62 -212 168 l-118 121 7 -52 c12 -94 -16 -117 -86 -70
-99 67 -130 207 -62 287 65 77 171 96 351 61z m-98 -426 c12 -22 11 -26 -11
-45 -47 -40 -57 -42 -74 -16 -16 24 -15 26 17 55 40 37 51 38 68 6z m-145 -11
c19 -14 37 -34 40 -45 9 -26 41 -42 62 -31 11 7 34 1 77 -21 33 -16 90 -40
126 -52 65 -22 65 -22 65 -61 0 -32 4 -40 26 -48 36 -12 59 -2 59 27 0 33 6
36 48 27 20 -4 58 -11 84 -15 46 -6 47 -7 63 -56 9 -27 18 -71 18 -97 l2 -47
-45 -3 c-64 -4 -114 20 -180 89 -51 53 -61 59 -98 59 -52 0 -144 34 -199 72
-40 29 -43 30 -126 23 -72 -6 -91 -4 -128 12 -52 24 -82 55 -77 80 3 18 120
113 139 113 6 0 26 -12 44 -26z m449 -153 c3 -4 2 -28 -2 -52 -7 -38 -11 -44
-32 -44 -22 0 -25 5 -28 39 -2 21 -1 44 2 52 6 15 52 19 60 5z"/>
<path d="M4222 5178 c-18 -18 -14 -46 7 -58 25 -13 48 -4 56 21 12 38 -35 65
-63 37z"/>
<path d="M4730 4936 c-6 -8 -10 -25 -8 -38 2 -18 9 -23 33 -23 24 0 31 5 33
23 4 25 -13 52 -33 52 -7 0 -18 -7 -25 -14z"/>
<path d="M5638 5365 l37 -86 158 -91 c86 -50 159 -94 162 -98 2 -4 -42 -32
-98 -63 -56 -31 -108 -60 -115 -65 -11 -8 -11 -28 3 -118 14 -84 16 -148 12
-289 -4 -174 -10 -208 -51 -340 -6 -17 25 -38 240 -161 l246 -141 146 82 c168
94 606 344 700 399 34 20 66 35 70 33 4 -2 260 -149 569 -327 475 -274 559
-326 545 -335 -9 -7 -48 -29 -87 -50 -86 -47 -669 -380 -747 -427 l-56 -34
569 -328 c402 -232 573 -325 582 -319 6 6 44 27 82 48 39 21 180 101 313 177
134 77 250 142 258 145 12 4 14 -30 14 -218 l0 -224 -48 -27 c-45 -25 -110
-84 -101 -91 2 -2 37 -22 77 -46 l73 -43 -7 -134 c-3 -74 -4 -134 -2 -134 3 0
23 16 44 35 l38 35 -40 34 c-48 43 -32 47 24 6 l41 -29 57 19 c31 11 61 20 66
20 6 0 8 -24 6 -53 l-3 -53 50 33 c27 18 53 33 57 33 5 0 8 14 8 30 0 25 4 30
24 30 37 0 173 -28 196 -40 17 -9 20 -8 21 12 0 13 3 78 5 145 5 119 5 122
-17 134 -35 18 -119 39 -161 39 -73 0 -68 -25 -68 355 l0 342 79 6 c44 3 100
11 125 18 l46 11 0 149 c0 82 -1 149 -2 149 -2 0 -39 -7 -83 -15 -147 -26
-285 -17 -431 29 l-74 24 0 -84 c0 -46 -2 -84 -6 -84 -3 0 -48 25 -100 55 -53
30 -98 55 -100 55 -3 0 -133 74 -289 165 -157 91 -290 166 -297 167 -7 2 -17
8 -23 14 -5 6 -165 100 -355 209 -554 319 -802 462 -1367 789 -305 175 -538
304 -544 300 -7 -4 -9 -3 -6 3 4 6 -87 64 -211 136 -119 68 -234 134 -254 146
l-37 22 37 -86z m3782 -2310 c0 -30 -4 -55 -9 -55 -5 0 -30 12 -56 26 l-47 27
49 27 c26 15 51 28 56 29 4 1 7 -24 7 -54z"/>
<path d="M13424 4814 c-18 -14 -18 -15 4 -4 12 6 22 13 22 15 0 8 -5 6 -26
-11z"/>
<path d="M13324 4804 c-18 -14 -18 -15 4 -4 12 6 22 13 22 15 0 8 -5 6 -26
-11z"/>
<path d="M13354 4774 c-18 -14 -18 -15 4 -4 12 6 22 13 22 15 0 8 -5 6 -26
-11z"/>
<path d="M13298 4744 c-38 -20 -36 -28 2 -9 17 9 30 18 30 20 0 7 -1 6 -32
-11z"/>
<path d="M13204 4734 c-18 -14 -18 -15 4 -4 12 6 22 13 22 15 0 8 -5 6 -26
-11z"/>
<path d="M13234 4704 c-18 -14 -18 -15 4 -4 12 6 22 13 22 15 0 8 -5 6 -26
-11z"/>
<path d="M5572 4670 c0 -14 2 -19 5 -12 2 6 2 18 0 25 -3 6 -5 1 -5 -13z"/>
<path d="M13178 4674 c-38 -20 -36 -28 2 -9 17 9 30 18 30 20 0 7 -1 6 -32
-11z"/>
<path d="M13084 4664 c-18 -14 -18 -15 4 -4 12 6 22 13 22 15 0 8 -5 6 -26
-11z"/>
<path d="M13114 4634 c-18 -14 -18 -15 4 -4 12 6 22 13 22 15 0 8 -5 6 -26
-11z"/>
<path d="M5583 4565 c0 -22 2 -30 4 -17 2 12 2 30 0 40 -3 9 -5 -1 -4 -23z"/>
<path d="M5582 4380 c0 -14 2 -19 5 -12 2 6 2 18 0 25 -3 6 -5 1 -5 -13z"/>
<path d="M9765 3940 c-87 -55 -289 -69 -413 -28 l-72 24 0 -132 0 -132 55 19
c124 43 279 45 397 3 22 -8 42 -14 44 -14 2 0 4 58 4 128 0 86 4 132 12 140
17 17 7 15 -27 -8z"/>
<path d="M13772 3737 c-105 -62 -192 -117 -192 -124 0 -7 25 3 60 23 33 19 65
32 72 28 6 -4 8 -3 5 3 -4 6 47 41 118 83 115 66 143 86 133 95 -2 2 -90 -47
-196 -108z"/>
<path d="M9888 3743 c-1 -5 -21 -24 -44 -44 l-41 -36 48 -42 49 -42 0 85 c0
79 -3 98 -12 79z"/>
<path d="M9180 3660 c0 -38 3 -70 6 -70 4 0 23 15 44 34 l38 34 -44 36 -44 37
0 -71z"/>
<path d="M9884 2206 c-6 -7 -27 -26 -47 -42 l-35 -29 49 -43 49 -44 0 86 c0
47 -1 86 -2 86 -2 -1 -8 -7 -14 -14z"/>
<path d="M9190 1881 l0 -151 28 -11 c15 -6 61 -20 102 -31 90 -25 301 -29 393
-9 l57 12 0 151 0 150 -27 -6 c-140 -30 -299 -27 -429 7 -49 13 -97 27 -106
31 -17 8 -18 -3 -18 -143z"/>
</g>
</svg>
