<?xml version="1.0" encoding="utf-8"?>
<!-- Generator: Adobe Illustrator 16.0.0, SVG Export Plug-In . SVG Version: 6.00 Build 0)  -->
<!DOCTYPE svg PUBLIC "-//W3C//DTD SVG 1.1//EN" "http://www.w3.org/Graphics/SVG/1.1/DTD/svg11.dtd">
<svg version="1.1" xmlns="http://www.w3.org/2000/svg" xmlns:xlink="http://www.w3.org/1999/xlink" x="0px" y="0px" width="612px"
	 height="792px" viewBox="0 0 612 792" enable-background="new 0 0 612 792" xml:space="preserve">
<g id="图层_1">
	<title>diagram2</title>
	<path d="M103.711,474.439c4.681-13.295,11.587-25.656,20.88-37.514c17.2-21.955,40.592-39.334,63.217-56.139
		c41.406-30.758,84.142-62.546,89.831-123.164l13.858,17.367l4.527-3.666l-21.99-27.547l-25.872,23.955l3.988,4.311l17.152-15.893
		c-4.995,57.324-44.604,86.775-86.525,117.894c-35.708,26.529-72.33,53.762-87.614,99.506
		C98.03,473.754,100.883,474.059,103.711,474.439z"/>
	<path d="M523.756,441.697l-13.859,17.367c-5.641-60.617-48.377-92.406-89.83-123.165c-22.627-16.768-46.018-34.184-63.219-56.138
		c-9.05-11.592-15.845-23.663-20.512-36.618c-2.889,0.221-5.799,0.307-8.712,0.291c15.343,45.568,51.888,72.736,87.519,99.209
		c41.922,31.142,81.52,60.584,86.502,117.895l-17.152-15.869l-3.988,4.313l25.908,23.93l21.99-27.547L523.756,441.697z"/>
	<path d="M303.563,243.143c-48.29,0-87.436-39.146-87.436-87.436s39.146-87.436,87.436-87.436c48.289,0,87.436,39.146,87.436,87.436
		C390.945,203.975,351.83,243.09,303.563,243.143z M303.563,74.261c-44.982,0-81.447,36.465-81.447,81.447
		s36.465,81.447,81.447,81.447c44.982,0,81.447-36.465,81.447-81.447C384.957,110.748,348.522,74.313,303.563,74.261z"/>
	<path d="M116.729,660.99c-48.29,0-87.436-39.146-87.436-87.436c0-48.289,39.146-87.436,87.436-87.436s87.436,39.146,87.436,87.436
		l0,0C204.111,621.822,164.996,660.938,116.729,660.99z M116.729,492.108c-44.982,0-81.447,36.465-81.447,81.446
		c0,44.982,36.465,81.447,81.447,81.447s81.447-36.465,81.447-81.447C198.123,528.595,161.688,492.161,116.729,492.108z"/>
	<path d="M505.499,660.99c-48.289,0-87.436-39.146-87.436-87.436c0-48.289,39.146-87.436,87.436-87.436
		c48.29,0,87.437,39.146,87.437,87.436l0,0C592.883,621.822,553.767,660.938,505.499,660.99z M505.499,492.108
		c-44.981,0-81.446,36.465-81.446,81.446c0,44.982,36.465,81.447,81.446,81.447c44.982,0,81.447-36.465,81.447-81.447
		C586.894,528.595,550.459,492.161,505.499,492.108z"/>
</g>
<g id="图层_3">
	<g>
		<g>
			<path fill="#99E7FA" d="M352.984,150.053c-0.029,10.872-7.375,20.012-17.357,22.757c-2.018,0.557-4.146,0.853-6.344,0.847
				h-60.232c-0.682,0-1.357-0.036-2.022-0.106c-8.997-0.929-16.276-8.051-17.248-17.241c-1.126-10.646,6.582-20.19,17.214-21.317
				c-0.064-0.79-0.095-1.534-0.095-2.262c0.069-15.28,10.818-28.422,25.764-31.503c0.765-0.158,1.528-0.287,2.289-0.387
				c16.635-2.212,32.387,8.808,35.819,25.523C343.273,127.118,353.018,137.51,352.984,150.053L352.984,150.053z"/>
			<path fill="#4DD4F7" d="M352.984,150.053c-0.029,10.872-7.375,20.012-17.357,22.757c-2.018,0.557-4.146,0.853-6.344,0.847h-1.781
				c1.07-0.144,2.117-0.358,3.137-0.639c9.98-2.746,17.328-11.886,17.357-22.758c0.033-12.543-9.711-21.688-22.215-22.442
				c-3.086-15.031-16.135-26.379-30.829-26.978c16.635-2.212,32.387,8.808,35.819,25.523
				C343.273,127.118,353.018,137.51,352.984,150.053L352.984,150.053z"/>
			<path fill="#4DD4F7" d="M335.627,143.609v29.202c-2.018,0.557-4.146,0.853-6.344,0.847h-60.232c-0.682,0-1.357-0.036-2.022-0.106
				v-29.942c0-1.833,1.486-3.32,3.319-3.32h61.96C334.141,140.289,335.627,141.775,335.627,143.609L335.627,143.609z"/>
			<g>
				<path fill="#EEF0F5" d="M271.186,144.446h60.285v18.412h-60.285V144.446z"/>
				<path fill="#DAE1EA" d="M331.471,144.446v18.412h-60.285V158.7h54.091c1.125,0,2.035-0.911,2.035-2.035v-12.22H331.471z"/>
				<g>
					<path fill="#00CEC8" d="M277.449,150.534h6.236v6.235h-6.236V150.534z"/>
					<path fill="#FF4656" d="M289.921,150.534h6.236v6.235h-6.236V150.534z"/>
				</g>
			</g>
			<g>
				<path fill="#FF4656" d="M249.671,197.643h6.236v6.229h-6.236V197.643z"/>
				<path fill="#FF4656" d="M352.984,203.871h-6.234v-6.229h6.234V203.871z"/>
				<g>
					<path fill="#00CEC8" d="M277.772,184.233h6.236v6.229h-6.236V184.233z"/>
					<path fill="#00CEC8" d="M324.883,190.462h-6.236v-6.229h6.236V190.462z"/>
				</g>
			</g>
		</g>
		<g>
			<path fill="#56788B" d="M352.984,105.316v10.994c0,10.289-6.824,19.329-16.719,22.145c-0.709-0.202-1.402-0.435-2.078-0.701
				c-8.762-3.417-14.645-11.895-14.645-21.444v-10.994c9.826,0,16.723-4.758,16.723-4.758s5.006,3.453,12.563,4.475
				C350.143,105.213,351.529,105.316,352.984,105.316z"/>
			<path fill="#415E6F" d="M352.984,105.316v10.994c0,10.289-6.824,19.329-16.719,22.145c-0.709-0.202-1.402-0.435-2.078-0.701
				c8.76-3.417,14.641-11.895,14.641-21.444v-11.277C350.143,105.213,351.529,105.316,352.984,105.316z"/>
		</g>
		<path fill="#B9CFDF" d="M342.592,110.098c-2.553-0.724-4.695-1.609-6.326-2.4c-2.455,1.189-6.055,2.592-10.486,3.333v5.28
			c0,6.328,3.607,12.065,9.078,14.907c0.459,0.239,0.926,0.455,1.408,0.65c6.254-2.54,10.484-8.702,10.484-15.558v-5.28
			C345.266,110.783,343.877,110.461,342.592,110.098L342.592,110.098z"/>
		<path fill="#90ABBD" d="M342.592,110.098v6.213c0,5.796-3.023,11.687-7.734,14.907c0.459,0.239,0.926,0.455,1.408,0.65
			c6.254-2.54,10.484-8.702,10.484-15.558v-5.28C345.266,110.783,343.877,110.461,342.592,110.098L342.592,110.098z"/>
	</g>
	<g>
		<path d="M318.646,182.676c-0.859,0-1.559,0.697-1.559,1.558v6.229c0,0.861,0.699,1.559,1.559,1.559h6.236
			c0.861,0,1.561-0.698,1.561-1.559v-1.555h26.541c0.861,0,1.561-0.698,1.561-1.559c0-0.861-0.699-1.559-1.561-1.559h-26.541v-1.556
			c0-0.861-0.699-1.558-1.561-1.558h-1.559v-7.46h5.955h0.07c3.377,0,6.654-0.658,9.744-1.957c0.793-0.333,1.166-1.248,0.832-2.042
			c-0.332-0.794-1.246-1.167-2.041-0.833c-2.725,1.145-5.613,1.727-8.6,1.713h-5.961v-7.681h8.146c0.861,0,1.559-0.698,1.559-1.559
			v-18.39c0-0.861-0.697-1.559-1.559-1.559h-44.224c-0.861,0-1.559,0.698-1.559,1.559c0,0.861,0.698,1.559,1.559,1.559h42.666
			v15.272h-57.166v-15.272h7.311c0.861,0,1.559-0.698,1.559-1.559c0-0.861-0.698-1.559-1.559-1.559h-8.87
			c-0.862,0-1.559,0.698-1.559,1.559v18.39c0,0.861,0.697,1.559,1.559,1.559h8.145v7.681h-10.299c-3.614,0-7.096-1.081-10.068-3.125
			c-0.71-0.488-1.68-0.308-2.168,0.402c-0.488,0.709-0.309,1.68,0.401,2.168c3.495,2.404,7.586,3.673,11.834,3.673h10.301v7.46
			h-1.559c-0.861,0-1.559,0.698-1.559,1.559v1.556h-26.542c-0.861,0-1.559,0.698-1.559,1.559c0,0.861,0.698,1.559,1.559,1.559
			h26.542v1.555c0,0.861,0.698,1.559,1.559,1.559h6.236c0.861,0,1.559-0.698,1.559-1.559v-6.229c0-0.861-0.698-1.559-1.559-1.559
			h-1.559v-7.46h10.521v20.491l-3.496,3.493h-32.008v-1.556c0-0.861-0.698-1.56-1.559-1.56h-6.236c-0.861,0-1.559,0.698-1.559,1.56
			v6.229c0,0.861,0.698,1.559,1.559,1.559h6.236c0.861,0,1.559-0.698,1.559-1.559v-1.555h32.654c0.434,0,0.837-0.18,1.126-0.481
			l4.353-4.349c0.306-0.289,0.489-0.696,0.489-1.133v-21.138h10.477v21.138c0,0.434,0.182,0.838,0.482,1.128l4.357,4.352
			c0.291,0.306,0.697,0.483,1.129,0.483h32.654v1.556c0,0.861,0.699,1.559,1.561,1.559h6.234c0.861,0,1.561-0.698,1.561-1.559
			v-6.229c0-0.861-0.699-1.56-1.561-1.56h-6.234c-0.861,0-1.561,0.698-1.561,1.56v1.555h-32.008l-3.496-3.493v-20.49h10.521v7.46
			H318.646z M282.45,188.904h-3.118v-3.111h3.118V188.904z M254.349,202.313h-3.118v-3.11h3.118V202.313z M292.971,172.098H282.45
			v-7.681h10.521V172.098z M306.566,172.098h-10.477v-7.681h10.477V172.098z M348.309,199.202h3.117v3.11h-3.117V199.202z
			 M309.686,172.098v-7.681h10.521v7.681H309.686z M323.324,185.793v3.111h-3.117v-3.111H323.324z"/>
		<path d="M277.449,148.99c-0.861,0-1.559,0.698-1.559,1.559v6.229c0,0.861,0.698,1.559,1.559,1.559h6.236
			c0.861,0,1.559-0.697,1.559-1.559v-6.229c0-0.861-0.698-1.559-1.559-1.559H277.449z M282.126,155.219h-3.118v-3.111h3.118V155.219
			z"/>
		<path d="M296.158,158.336c0.86,0,1.559-0.697,1.559-1.559v-6.229c0-0.861-0.698-1.559-1.559-1.559h-6.236
			c-0.861,0-1.559,0.698-1.559,1.559v6.229c0,0.861,0.698,1.559,1.559,1.559H296.158z M291.48,152.108h3.118v3.111h-3.118V152.108z"
			/>
		<path d="M354.545,116.312v-10.995c0-0.861-0.699-1.559-1.561-1.559c-9.184,0-15.771-4.439-15.834-4.482
			c-0.531-0.367-1.236-0.367-1.77-0.001c-0.064,0.045-6.652,4.484-15.836,4.484c-0.678,0-1.254,0.431-1.469,1.033
			c-7.525-5.086-16.75-6.94-25.727-5.09c-7.578,1.562-14.451,5.722-19.353,11.716c-4.901,5.993-7.62,13.559-7.655,21.313
			c0,0.307,0.006,0.613,0.016,0.921c-10.702,1.906-18.288,11.838-17.127,22.824c0.375,3.548,1.655,6.958,3.703,9.862
			c0.304,0.431,0.786,0.662,1.275,0.662c0.311,0,0.625-0.093,0.897-0.285c0.704-0.496,0.872-1.469,0.376-2.172
			c-1.742-2.471-2.831-5.375-3.15-8.395c-1.033-9.775,6.067-18.57,15.829-19.604c0.842-0.089,1.459-0.834,1.39-1.678
			c-0.061-0.735-0.09-1.433-0.09-2.128c0.032-7.034,2.5-13.904,6.951-19.345c4.45-5.441,10.689-9.22,17.569-10.637
			c8.818-1.816,17.9,0.304,25.007,5.819v7.738c0,3.678,0.797,7.222,2.371,10.536c0.369,0.778,1.297,1.108,2.076,0.74
			c0.777-0.37,1.109-1.299,0.74-2.077c-1.373-2.893-2.07-5.987-2.07-9.199v-9.473c7.477-0.36,13.072-3.212,15.162-4.442
			c2.09,1.23,7.686,4.083,15.16,4.442v9.473c0,4.706-1.498,9.179-4.334,12.934c-2.746,3.636-6.482,6.252-10.826,7.583
			c-3.537-1.086-6.738-3.07-9.281-5.757c-0.594-0.626-1.58-0.653-2.205-0.061c-0.625,0.592-0.652,1.578-0.061,2.204
			c3.029,3.201,6.875,5.532,11.119,6.74c0.141,0.04,0.283,0.06,0.428,0.06s0.287-0.02,0.426-0.06
			c3.367-0.958,6.426-2.583,9.047-4.78c3.695,4.083,5.703,9.309,5.688,14.875c-0.018,6.525-2.893,12.676-7.887,16.876
			c-0.658,0.555-0.742,1.538-0.189,2.197c0.309,0.367,0.75,0.555,1.195,0.555c0.354,0,0.711-0.12,1.002-0.366
			c5.697-4.793,8.977-11.81,8.998-19.254c0.016-6.38-2.297-12.368-6.549-17.036c0.555-0.602,1.084-1.235,1.584-1.896
			C352.826,126.824,354.545,121.702,354.545,116.312z"/>
		<path d="M335.678,133.314c0.189,0.077,0.387,0.115,0.588,0.115c0.199,0,0.398-0.038,0.586-0.115
			c6.852-2.785,11.457-9.617,11.457-17.002v-5.28c0-0.762-0.551-1.412-1.303-1.538c-4.367-0.731-7.881-2.144-10.061-3.2
			c-0.43-0.208-0.932-0.208-1.361,0c-2.178,1.057-5.693,2.469-10.061,3.2c-0.752,0.126-1.301,0.776-1.301,1.538v5.28
			C324.223,123.697,328.826,130.529,335.678,133.314L335.678,133.314z M327.34,112.329c3.717-0.751,6.787-1.924,8.926-2.908
			c2.137,0.983,5.207,2.156,8.924,2.908v3.983c0,5.917-3.561,11.406-8.924,13.859c-5.365-2.453-8.926-7.942-8.926-13.859V112.329z"
			/>
		<path d="M282.619,122.758c-0.861,0-1.559,0.698-1.559,1.559v10.792c0,0.861,0.698,1.559,1.559,1.559
			c0.862,0,1.559-0.698,1.559-1.559v-10.792C284.178,123.456,283.481,122.758,282.619,122.758z"/>
		<path d="M295.091,136.667c0.861,0,1.56-0.698,1.56-1.559v-10.792c0-0.861-0.698-1.559-1.56-1.559h-6.236
			c-0.861,0-1.559,0.698-1.559,1.559v10.792c0,0.861,0.698,1.559,1.559,1.559H295.091z M290.415,125.876h3.118v7.674h-3.118V125.876
			z"/>
		<path d="M302.887,135.108v-10.792c0-0.861-0.698-1.559-1.56-1.559c-0.86,0-1.559,0.698-1.559,1.559v10.792
			c0,0.861,0.698,1.559,1.559,1.559C302.189,136.667,302.887,135.97,302.887,135.108z"/>
		<path d="M313.801,136.667c0.861,0,1.559-0.698,1.559-1.559v-10.792c0-0.861-0.697-1.559-1.559-1.559h-6.236
			c-0.861,0-1.559,0.698-1.559,1.559v10.792c0,0.861,0.698,1.559,1.559,1.559H313.801z M309.123,125.876h3.119v7.674h-3.119V125.876
			z"/>
		<path d="M306.134,153.665c0-0.862-0.698-1.56-1.56-1.56c-0.86,0-1.559,0.698-1.559,1.56c0,0.861,0.698,1.559,1.559,1.559
			C305.436,155.224,306.134,154.525,306.134,153.665z"/>
		<path d="M315.178,153.665c0-0.862-0.699-1.56-1.561-1.56s-1.559,0.698-1.559,1.56c0,0.861,0.697,1.559,1.559,1.559
			S315.178,154.525,315.178,153.665z"/>
		<path d="M324.219,153.665c0-0.862-0.697-1.56-1.559-1.56s-1.559,0.698-1.559,1.56c0,0.861,0.697,1.559,1.559,1.559
			S324.219,154.525,324.219,153.665z"/>
	</g>
</g>
<g id="图层_2">
	<g>
		<g>
			<g>
				<path fill="#FED402" d="M152.966,580.582h-26.77v28.392h21.451c2.436-2.352,4.609-4.973,6.473-7.815v-19.422
					C154.121,581.099,153.604,580.582,152.966,580.582z"/>
			</g>
			<path fill="#FEE45A" d="M133.887,595.676c-0.17,0.129-0.373,0.197-0.587,0.197c-0.213,0-0.417-0.068-0.586-0.197l-5.29-4.027
				l-1.227,1.433v15.893h21.451c1.168-1.127,2.275-2.315,3.316-3.563l-11.789-13.763L133.887,595.676z"/>
			<g>
				<path fill="#FAC600" d="M152.966,580.582h-26.77v10.365l6.404,4.875c0.412,0.315,0.985,0.315,1.398,0l19.682-14.985
					C153.484,580.68,153.238,580.582,152.966,580.582z"/>
			</g>
			<g>
				<path fill="#E8B800" d="M126.197,586.585v4.362l6.404,4.875c0.412,0.315,0.985,0.315,1.398,0l2.165-1.647L126.197,586.585z"/>
			</g>
		</g>
		<g>
			<g>
				<path fill="#116D9A" d="M78.318,602.052v9.196c0,2.13,1.727,3.857,3.857,3.857h38.957c2.13,0,3.857-1.728,3.857-3.857v-9.196
					H78.318z"/>
				<path fill="#005E89" d="M86.121,611.248v-9.01h-7.803v9.01c0,2.13,1.727,3.857,3.857,3.857h7.803
					C87.848,615.105,86.121,613.378,86.121,611.248z"/>
				<g>
					<path fill="#EAF6FF" d="M124.989,602.238H78.318v-67.459c0-2.13,1.727-3.857,3.857-3.857h38.957
						c2.13,0,3.857,1.728,3.857,3.857L124.989,602.238L124.989,602.238z"/>
				</g>
				<path fill="#D8ECFE" d="M89.979,530.922h-7.803c-2.13,0-3.857,1.728-3.857,3.857v67.459h7.803v-67.459
					C86.121,532.649,87.848,530.922,89.979,530.922z"/>
				<g>
					<path fill="#116D9A" d="M108.549,538.119H94.758c-1.254,0-2.398-0.717-2.944-1.845l-2.592-5.353h24.862l-2.591,5.353
						C110.946,537.402,109.803,538.119,108.549,538.119z"/>
				</g>
				<path fill="#005E89" d="M97.631,536.274l-2.592-5.353h-5.817l2.592,5.353c0.546,1.128,1.69,1.845,2.944,1.845h5.817
					C99.321,538.119,98.177,537.402,97.631,536.274z"/>
				<g>
					<path fill="#2882B2" d="M121.132,616.498H82.175c-2.895,0-5.25-2.355-5.25-5.25v-76.469c0-2.895,2.355-5.25,5.25-5.25h38.957
						c2.895,0,5.25,2.355,5.25,5.251v76.468C126.382,614.144,124.027,616.498,121.132,616.498L121.132,616.498z M82.175,532.315
						c-1.359,0-2.464,1.105-2.464,2.465v76.468c0,1.358,1.105,2.464,2.464,2.464h38.957c1.358,0,2.464-1.105,2.464-2.464v-76.469
						c0-1.358-1.105-2.464-2.464-2.464H82.175L82.175,532.315z"/>
				</g>
			</g>
			<g>
				<path fill="#60B7FF" d="M110.872,583.855H92.436c-0.77,0-1.394-0.625-1.394-1.394c0-0.77,0.624-1.394,1.394-1.394h18.436
					c0.77,0,1.394,0.624,1.394,1.394C112.265,583.23,111.642,583.855,110.872,583.855z"/>
			</g>
			<g>
				<path fill="#60B7FF" d="M106.002,590.116h-8.697c-0.77,0-1.394-0.624-1.394-1.394s0.624-1.394,1.394-1.394h8.697
					c0.769,0,1.393,0.624,1.393,1.394S106.771,590.116,106.002,590.116L106.002,590.116z"/>
			</g>
			<g>
				<circle fill="#60B7FF" cx="118.17" cy="535.889" r="1.394"/>
			</g>
			<g>
				<circle fill="#FFFFFF" cx="83.799" cy="535.889" r="1.394"/>
			</g>
			<g>
				<circle fill="#FFFFFF" cx="88.072" cy="535.889" r="1.394"/>
			</g>
			<g>
				<path fill="#005E89" d="M105.165,610.182h-7.022c-1.283,0-2.322-1.039-2.322-2.322c0-1.282,1.039-2.322,2.322-2.322h7.022
					c1.283,0,2.323,1.04,2.323,2.322C107.487,609.143,106.448,610.182,105.165,610.182z"/>
			</g>
		</g>
		<g>
			<path fill="#FED402" d="M130.671,574.178H91.548c-0.637,0-1.154-0.517-1.154-1.154V546.94c0-0.638,0.517-1.154,1.154-1.154
				h39.123c0.637,0,1.154,0.517,1.154,1.154v26.083C131.826,573.661,131.309,574.178,130.671,574.178z"/>
			<path fill="#FEE45A" d="M116.88,556.852l-5.289,4.027c-0.17,0.129-0.373,0.198-0.587,0.198s-0.416-0.069-0.586-0.198
				l-5.289-4.027l-14.473,16.897c0.212,0.26,0.53,0.429,0.891,0.429h39.123c0.303,0,0.577-0.119,0.783-0.311L116.88,556.852z"/>
			<path fill="#FAC600" d="M111.704,561.026l19.682-14.986c-0.197-0.156-0.443-0.255-0.715-0.255H91.548
				c-0.318,0-0.607,0.13-0.815,0.338l19.572,14.903C110.719,561.341,111.291,561.341,111.704,561.026z"/>
			<path fill="#E8B800" d="M96.525,546.123c0.209-0.208,0.497-0.338,0.816-0.338h-5.793c-0.318,0-0.607,0.13-0.815,0.338
				l19.572,14.903c0.413,0.314,0.986,0.314,1.399,0l2.197-1.673L96.525,546.123z"/>
		</g>
	</g>
	<g>
		<path fill="#FED402" d="M164.915,569.695h-24.562c-0.4,0-0.725-0.324-0.725-0.725v-16.376c0-0.4,0.324-0.725,0.725-0.725h24.562
			c0.4,0,0.725,0.324,0.725,0.725v16.376C165.64,569.371,165.315,569.695,164.915,569.695L164.915,569.695z"/>
		<path fill="#FEE45A" d="M156.212,558.765l-3.317,2.526c-0.094,0.071-0.208,0.109-0.327,0.109s-0.231-0.038-0.326-0.109
			l-3.317-2.526l-9.131,10.661c0.133,0.163,0.333,0.27,0.56,0.27h24.562c0.19,0,0.362-0.075,0.491-0.195L156.212,558.765z"/>
		<path fill="#FAC600" d="M153.007,561.439l12.356-9.409c-0.124-0.099-0.278-0.16-0.448-0.16h-24.562
			c-0.2,0-0.381,0.081-0.512,0.212l12.288,9.356C152.388,561.637,152.748,561.637,153.007,561.439L153.007,561.439z"/>
		<path fill="#E8B800" d="M145.691,552.082c0.131-0.131,0.312-0.212,0.512-0.212h-5.849c-0.2,0-0.381,0.081-0.512,0.212
			l12.288,9.357c0.26,0.197,0.619,0.197,0.878,0l2.486-1.894L145.691,552.082z"/>
	</g>
	<path fill="#1EA6C6" d="M549.349,604.964c0,0.011,0,0.021,0,0.034c-10.532,9.551-24.513,15.369-39.848,15.369
		c-15.339,0-29.319-5.818-39.852-15.369c0-0.013,0-0.023,0-0.034c0-15.886,9.295-29.598,22.741-35.997
		c5.054,5.04,10.972,7.756,17.11,7.756c6.141,0,12.055-2.716,17.111-7.756C540.059,575.366,549.349,589.078,549.349,604.964z"/>
	<path fill="#FCD09F" d="M509.501,518.792c12.173,0,22.042,9.867,22.042,22.04c0,12.176-9.869,28.826-22.042,28.826
		c-12.174,0-22.043-16.65-22.043-28.826C487.458,528.659,497.327,518.792,509.501,518.792z"/>
	
		<image overflow="visible" width="632" height="180" xlink:href="smsplant/smsplant/img/logo/logo4.png"  transform="matrix(0.3362 0 0 0.3362 183.6724 6)">
	</image>
	<text transform="matrix(1 0 0 1 71.5 703.3965)" font-family="'SimHei'" font-size="31.2878">手机群</text>
	<text transform="matrix(1 0 0 1 482.458 700.5928)" font-family="'SimHei'" font-size="30.75">访客</text>
</g>
</svg>
